# xmcd CD database file
#
# Track frame offsets:
#	150
#	18775
#	37225
#	51400
#	65212
#	77637
#	91237
#	103512
#	117837
#	137512
#	161725
#	181562
#	200775
#	213400
#	224985
#	244900
#	264875
#	279062
#	294275
#	308062
#	322725
#
# Disc length: 4554 seconds
#
# Revision: 5
# Processed by: cddbd v1.5.2PL0 Copyright (c) Steve Scherf et al.
# Submitted via: CDex 1.99
#
DISCID=2e11c815
DTITLE=Various Artist - The Chess Story 1947-1975 CD13: 1969-1975
DYEAR=1999
DGENRE=Soul/R&B
TTITLE0=John Littlejohn - I Had A Dream
TTITLE1=The Dells - Oh What A Night
TTITLE2=Little Milton - If Walls Could Talk
TTITLE3=Howlin' Wolf - Who's Been Talking
TTITLE4=Little Milton - Baby I Love You
TTITLE5=Etta James - Losers Weepers
TTITLE6=Lee Eldred - Recouperating
TTITLE7=Sam Dees - Can You Be A One-Woman Man
TTITLE8=Koko Taylor - Tease Your Man
TTITLE9=Muddy Waters - Sad, Sad Days
TTITLE10=Chuck Berry - My Ding-a-Ling
TTITLE11=The Dells - Give Your Baby A Standing Ovation
TTITLE12=Muddy Waters - Can't Get No Grindin'
TTITLE13=Howlin' Wolf - Can't Stay Here
TTITLE14=Chuck Berry - Bio
TTITLE15=The Dells - I Miss You
TTITLE16=Big Al Downing - I'll Be Holding On
TTITLE17=The Dramatics - Don't Make Me No Promises
TTITLE18=Solomon Burke - I'm Leaving On That Late, Late Train
TTITLE19=Jimmy Ruffin - Tell Me What You Want
TTITLE20=Muddy Waters - Going Down To Main Street
EXTD=YEAR: 1999
EXTT0=
EXTT1=
EXTT2=
EXTT3=
EXTT4=
EXTT5=
EXTT6=
EXTT7=
EXTT8=
EXTT9=
EXTT10=
EXTT11=
EXTT12=
EXTT13=
EXTT14=
EXTT15=
EXTT16=
EXTT17=
EXTT18=
EXTT19=
EXTT20=
PLAYORDER=
